<svg xmlns="http://www.w3.org/2000/svg" width="512" height="512" viewBox="0 0 512 512"><defs><mask id="a"><circle cx="256" cy="256" r="256" fill="#fff"/></mask></defs><g mask="url(#a)"><path fill="#496e2d" d="M0 0h512v512H0Z"/><path fill="#eee" d="M98.6 247v29.5H87.3v-19H74.5q-4.5 0-7.6 1.6-3.2 1.5-4.8 4.6-1.7 3-1.7 7.4t1.7 7.4q1.6 3 4.8 4.4 3 1.4 7.6 1.4h53.7V247h-9.1v29.5h-11.3V247zm37.7 0v37.3h9.2V247zm51.2 0v37.2q0 1.5-.6 2.7-.6 1.4-2 2a9 9 0 0 1-4.3.9q-2.4 0-4.3-.8-1.6-.8-2.5-2-.9-1.4-.9-3.3l.2-2.9 1.6-11.2-9-1.1-1.4 8.7-.5 6.6q0 4 2 7 2.4 3.2 6.1 5 3.9 1.7 8.7 1.7t8.3-1.7q3.7-1.5 5.7-4.7 2-3 2-7V247zm177.2 10.3a38 38 0 0 0-10.4 1.5 41 41 0 0 0-1.4 7.6 59 59 0 0 0 0 10v.1h-11.3v-2.2q0-5.7-1.9-9.5a12 12 0 0 0-5.6-5.5 21 21 0 0 0-9.1-1.8h-4.3v7.8h4.3q3 0 4.5.8t2.3 2.7q.6 2 .7 5.5v2.2h-13.2v7.8h132.3v-13.2q0-5.1-1.7-8.1a10 10 0 0 0-5-4.3 22 22 0 0 0-8.2-1.4 38 38 0 0 0-10.4 1.5 41 41 0 0 0-1.4 7.6 59 59 0 0 0 0 10v.1h-11.3v-5q0-4.4-2.1-7.5a14 14 0 0 0-5.7-4.8 19 19 0 0 0-8.2-1.7q-2.2 0-4.4.4l-4.5.8.8 7.2a50 50 0 0 1 7-.6q4.2 0 6 1.6 2 1.6 2 4.6v5h-24.9v-5.4q0-5.1-1.7-8.1a10 10 0 0 0-5-4.3 22 22 0 0 0-8.2-1.4m-148.3.2q-4.5 0-7.7 1.6-3 1.5-4.8 4.6-1.5 3-1.6 7.4 0 4.4 1.6 7.4t4.8 4.4 7.7 1.4h3.6v1.7q0 2.4-1.5 3.6t-5 1.2l-3-.2q-1.8 0-4.4-.4l-1.4 7.3a61 61 0 0 0 8.9 1q4.7 0 8.1-1.5a12 12 0 0 0 5.5-4.4q2-2.7 2-6.6v-1.7h23.7a15 15 0 0 0 8.2-2l2.3 1.1q2.5 1 4.9 1h14.4v-14.6l-.3-3.4-1.4-9-9 1.4a122 122 0 0 1 1.5 11v6.7h-5.2l-2-.3-.9-.6q.8-2.7.8-6.4v-8.9H257v8.9q0 3.2-.4 4.8-.3 1.5-1.2 2t-2.5.5h-3.2V263h-9.1v13.5H229v-19zm76.6 0V285a7 7 0 0 1-1 4.2q-1.1 1.5-3 1.5h-2.9l-.2 7.5 3.3.3q4 0 6.8-1.8 3-1.6 4.5-4.8 1.7-3 1.7-7v-27.5zm71.7 7.6q2.3 0 3.5.5t1.7 1.8q.6 1.2.5 3.6v5.5h-8.3a73 73 0 0 1-.1-8.8q0-1.3.3-2.5zm72 0q2.3 0 3.5.5t1.7 1.8q.6 1.2.5 3.6v5.5h-8.3a73 73 0 0 1-.1-8.8q0-1.3.3-2.5zm-362.2.2h3.6v11.2h-3.6q-1.6 0-2.8-.3-1-.3-1.6-1.4-.5-1.2-.5-3.7 0-2.6.6-3.8a3 3 0 0 1 1.7-1.7q1.2-.3 2.6-.3m141.9 0h3.6v11.2h-3.6q-1.6 0-2.8-.3t-1.6-1.4q-.6-1.2-.6-3.7 0-2.6.6-3.8a3 3 0 0 1 1.8-1.7q1-.3 2.6-.3M113.5 176v39.8H98.2v-25.7H81q-6 0-10.3 2.2-4.3 2-6.5 6.1a21 21 0 0 0-2.2 10.1q0 6 2.2 10t6.5 5.9 10.3 2h72.5v-50.5h-12.3v39.9h-15.3v-39.9zm51 0v50.3h12.3V176zm68.9 0v39.8h-10.5v-29.9h-12.4v29.9h-9v10.5h44.3V176zm23.5 0v50.3h12.3V176zm88.5 0v39.8h-15.2v-25.7H313q-6 0-10.4 2.2-4.2 2-6.5 6.1a21 21 0 0 0-2.2 10.1q0 6 2.2 10t6.5 5.9 10.4 2h44.8v-50.5zm23.4 0v50.3H381V176zm68.9 0v39.8H427v-29.9h-12.3v29.9h-9v10.5H450V176ZM81 200.5h5v15.2h-5q-2.3 0-3.8-.4t-2.1-2q-.8-1.6-.8-4.9t.8-5.2a4 4 0 0 1 2.4-2.2q1.5-.5 3.5-.5m232 0h4.8v15.2H313q-2.4 0-3.9-.4-1.4-.5-2.1-2-.7-1.6-.7-4.9t.7-5.2a4 4 0 0 1 2.4-2.2q1.5-.5 3.6-.5M336 356v16H128l24 24h184v16h16v-16h32v-24h-32v-16z"/></g></svg>