<svg xmlns="http://www.w3.org/2000/svg" width="512" height="512"><mask id="a"><circle cx="256" cy="256" r="256" fill="#fff"/></mask><g mask="url(#a)"><path fill="#eee" d="m0 167 256-32 256 32v178l-256 32L0 345Z"/><path fill="#496e2d" d="M0 0h512v167H0Z"/><path fill="#d80027" d="M0 345h512v167H0Z"/><path fill="#333" d="m256 200.3 13.8 42.6h44.7L278.4 269l13.8 42.6-36.2-26.3-36.2 26.3 13.8-42.6-36.1-26.2h44.7z"/><path fill="#eee" d="M151 116.1v19.7h-7.5V123H135q-3 0-5 1-2.2 1-3.3 3.1-1 2-1 5 0 2.9 1 4.9a7 7 0 0 0 3.2 3q2 .9 5.1.9h35.8V116h-6v19.7h-7.6V116zm25.2 0V141h6.1v-25zm34.1 0v24.8q0 1-.4 1.8-.4 1-1.3 1.3a6 6 0 0 1-2.9.6q-1.6 0-2.8-.5a5 5 0 0 1-1.7-1.3q-.6-1-.6-2.2l.1-2 1.1-7.4-6-.8-1 5.8-.3 4.4q0 2.7 1.4 4.7 1.6 2.1 4 3.3 2.6 1.2 5.8 1.2t5.6-1.2a8 8 0 0 0 3.8-3.1q1.3-2 1.3-4.7v-24.7zm118.2 6.9a25 25 0 0 0-7 1 27 27 0 0 0-1 5 39 39 0 0 0 0 6.7h-7.4v-1.4q0-3.8-1.3-6.3a8 8 0 0 0-3.7-3.7 14 14 0 0 0-6.1-1.2h-2.9v5.2h2.9q2 0 3 .5t1.5 1.8q.4 1.4.5 3.7v1.5h-8.8v5.2h88.2v-8.8q0-3.4-1.1-5.4a7 7 0 0 0-3.4-3 15 15 0 0 0-5.4-.8 25 25 0 0 0-7 1 27 27 0 0 0-1 5 39 39 0 0 0 0 6.7h-7.4v-3.3q0-3-1.4-5a9 9 0 0 0-3.8-3.2 13 13 0 0 0-5.5-1.1q-1.5 0-3 .3l-3 .5.6 4.8 4.7-.4q2.8 0 4 1 1.3 1.1 1.3 3.1v3.4h-16.6v-3.6q0-3.4-1.1-5.4a7 7 0 0 0-3.4-3 15 15 0 0 0-5.4-.8m-98.9 0q-3 0-5.1 1.2-2 1-3.2 3-1 2-1.1 5 0 2.9 1 4.9a7 7 0 0 0 3.3 3q2.1.9 5.1.9h2.4v1q0 1.7-1 2.5t-3.3.8l-2-.1q-1.2 0-3-.3l-.9 4.9a41 41 0 0 0 6 .6q3 0 5.3-1a8 8 0 0 0 3.7-3q1.3-1.7 1.3-4.3V141H254a10 10 0 0 0 5.5-1.4l1.5.8q1.7.6 3.3.6h9.6v-9.7l-.2-2.3-1-6-6 1 1 7.3v4.5h-3.4l-1.3-.2-.6-.4q.5-1.8.5-4.3v-6h-6.1v6q0 2.1-.3 3.2-.2 1-.8 1.3t-1.7.4h-2.1v-9h-6v9H238V123zm51 0v18.4a5 5 0 0 1-.6 2.8q-.7 1-2 1h-2v5l2.1.2q2.7 0 4.6-1.2 2-1 3-3.2 1.1-2 1.1-4.6V123Zm47.9 5.2q1.5 0 2.3.3t1.1 1.2.4 2.4v3.7h-5.6v-6l.2-1.6zm48 0q1.5 0 2.3.3t1.1 1.2.4 2.4v3.7h-5.6v-6l.2-1.6zm-241.5 0h2.4v7.6H135q-1 0-1.9-.2-.6-.2-1-1t-.4-2.4q0-1.8.4-2.6a2 2 0 0 1 1.2-1.1q.8-.2 1.7-.2m94.6 0h2.4v7.5h-2.4q-1 0-1.9-.2t-1-1q-.4-.8-.4-2.4 0-1.8.4-2.6a2 2 0 0 1 1.2-1.1q.6-.2 1.7-.2M161 68.8v26.5h-10.2V78.2h-11.5q-4 0-6.8 1.4a9 9 0 0 0-4.4 4.1 14 14 0 0 0-1.4 6.7q0 4 1.4 6.7a9 9 0 0 0 4.4 4q2.8 1.2 6.8 1.3h48.4V68.7h-8.2v26.6h-10.2V68.7Zm34 0v33.5h8.2V68.8Zm46 0v26.5h-7v-20h-8.3v20h-6v7h29.5V68.8Zm15.6 0v33.5h8.2V68.8Zm59 0v26.5h-10.1V78.2H294q-4 0-7 1.4a10 10 0 0 0-4.3 4.1 14 14 0 0 0-1.4 6.7q0 4 1.4 6.7a9 9 0 0 0 4.4 4q2.8 1.2 6.9 1.3h29.9V68.7Zm15.6 0v33.5h8.1V68.8Zm46 0v26.5H370v-20h-8.2v20h-6v7h29.5V68.8ZM139.2 85h3.4v10.1h-3.4q-1.5 0-2.5-.2a2 2 0 0 1-1.4-1.4q-.5-1-.5-3.2t.5-3.5a3 3 0 0 1 1.6-1.5q1-.3 2.3-.3m154.7 0h3.2v10.1H294q-1.6 0-2.6-.2-1-.4-1.4-1.4-.5-1-.5-3.2t.5-3.5a3 3 0 0 1 1.6-1.5q1-.3 2.4-.3"/></g></svg>